<svg viewBox="0 0 20 20" xmlns="http://www.w3.org/2000/svg"><path id="shared-platform" d="m18.84 9.41-6.12-6.12a1 1 0 0 0 -1.41 0l-1.42 1.42-1.41-1.42a1 1 0 0 0 -1.42 0l-6.12 6.12a1 1 0 0 0 -.29.71 1 1 0 0 0 .29.71l6.12 6.17a1 1 0 0 0 1.42 0l1.41-1.41 1.42 1.41a1 1 0 0 0 .7.29 1 1 0 0 0 .71-.29l6.12-6.12a1 1 0 0 0 0-1.47zm-11.07 5.42-4.71-4.71 4.71-4.71.71.71-3.3 3.29a1 1 0 0 0 0 1.42l3.3 3.29zm2.12-7.29 2.59 2.58-2.59 2.59-2.58-2.59zm2.11 7.29-.7-.71 3.29-3.29a1 1 0 0 0 0-1.42l-3.28-3.29.7-.71 4.71 4.71z" fill="currentColor"/></svg>
